<svg xmlns="http://www.w3.org/2000/svg">
    <symbol id="gearIcon" viewBox="0 0 28 28">
        <path fill="inherit" d="M25.72 15.27l1.33-1a2.47 2.47 0 00-.75-4.29l-1.6-.51a1.72 1.72 0 01-1.15-2l.37-1.66A2.43 2.43 0 0020.62 3l-1.55.65a1.68 1.68 0 01-2.15-.79l-.77-1.51a2.41 2.41 0 00-4.3 0l-.77 1.51a1.68 1.68 0 01-2.15.79L7.38 3a2.43 2.43 0 00-3.3 2.8l.37 1.66a1.72 1.72 0 01-1.15 2l-1.6.51a2.47 2.47 0 00-.7 4.27l1.33 1a1.73 1.73 0 01.4 2.29L1.78 19a2.45 2.45 0 002.15 3.77l1.67-.08a1.7 1.7 0 011.76 1.49l.22 1.68a2.42 2.42 0 004 1.49l1.23-1.15a1.68 1.68 0 012.29 0l1.23 1.15a2.42 2.42 0 004-1.49l.22-1.68a1.7 1.7 0 011.76-1.49l1.67.08A2.45 2.45 0 0026.22 19l-.9-1.43a1.73 1.73 0 01.4-2.3zM14 20.77A6.77 6.77 0 1120.77 14 6.77 6.77 0 0114 20.77z"></path>
    </symbol>

    <symbol id="plusIcon" viewBox="0 0 28 28">
        <path fill="inherit" d="M25.79 12H16V2.21h-4V12H2.21v4H12v9.79h4V16h9.79z"></path>
    </symbol>

    <symbol id="earthIcon" viewBox="0 0 28 28">
        <path fill="inherit" d="M28 14c0-7.7-6.3-14-14-14S0 6.3 0 14c0 7.5 5.9 13.7 13.5 14h1C22 27.7 28 21.5 28 14zM14 25.9c-1.4-1.3-2.4-3-2.9-4.9H17c-.6 1.8-1.6 3.5-3 4.9zM10.5 19c-.3-1.3-.4-2.7-.5-4h7.9c0 1.3-.2 2.7-.5 4h-6.9zm-8.4-4h6c0 1.3.2 2.7.4 4H3.1c-.5-1.3-.9-2.6-1-4zM14 2.3c1.4 1.3 2.4 2.9 2.9 4.7h-5.8c.5-1.8 1.5-3.4 2.9-4.7zM17.5 9c.3 1.3.4 2.7.5 4h-7.9c0-1.3.2-2.7.5-4h6.9zm8.4 4h-6c0-1.3-.2-2.7-.4-4h5.4c.5 1.3.9 2.6 1 4zM8.1 13h-6c.1-1.4.5-2.7 1.1-4h5.3c-.3 1.3-.4 2.7-.4 4zm11.8 2h6c-.1 1.4-.5 2.7-1.1 4h-5.3c.3-1.3.4-2.7.4-4zm3.8-8H19c-.5-1.7-1.2-3.2-2.2-4.6C19.6 3 22 4.7 23.7 7zM11.2 2.4c-1 1.4-1.7 3-2.2 4.6H4.3C6 4.7 8.4 3 11.2 2.4zM4.3 21H9c.5 1.6 1.2 3.2 2.2 4.6-2.8-.7-5.2-2.3-6.9-4.6zm12.6 4.6c1-1.4 1.7-3 2.1-4.6h4.7c-1.7 2.3-4.1 3.9-6.8 4.6z"></path>
    </symbol>

    <symbol id="publishPageIcon" viewBox="0 0 34 28">
        <path fill="inherit" d="M28.1 14v10H6V14H3v13h28.1V14z"></path>
        <path fill="inherit" d="M15.1 19h4V9h6.3L17.1.6 8.7 9h6.4z"></path>
    </symbol>

    <symbol id="requestsList" viewBox="0 0 40 28">
        <path fill="inherit" d="M9 .9H5v5H0v4h5v5h4v-5h5v-4H9zM16 5.9h24v4H16zM16 13.9h24v4H16zM16 21.9h24v4H16z"></path>
    </symbol>

    <symbol id="pageUrl" viewBox="0 0 28 28">
        <path fill="inherit" d="M22 23.1H4.9V6h9.5V3H1.9v23.1H25V13.6h-3z"></path>
        <path fill="inherit" d="M18 0v3h4.9L9.1 16.8l2.1 2.1L25 5.1V10h3V0z"></path>
    </symbol>

    <symbol id="publishCloud" viewBox="0 0 26.6 25.8">
        <path fill="inherit" d="M21 6C19.8 1.7 15.4-.8 11.2.4 8.4 1.1 6.3 3.3 5.6 6 1.4 7.4-.9 11.9.5 16.1c1.1 3.3 4.1 5.5 7.5 5.5v-3c-2.8-.2-4.9-2.5-4.7-5.3.1-2.2 1.7-4.1 3.9-4.6l1.1-.2.1-1.1c.4-2.7 3-4.6 5.7-4.1 2.1.3 3.8 2 4.1 4.1l.1 1.1 1.1.2c2.7.6 4.4 3.3 3.7 6-.5 2.2-2.4 3.7-4.6 3.9v3c4.4-.1 7.9-3.7 7.9-8.1.1-3.4-2.2-6.4-5.4-7.5z"></path>
        <path fill="inherit" d="M19.8 13.4l-6.5-6.5-6.5 6.5 2.1 2.2 2.9-2.9v13.1h3V12.7l2.8 2.9z"></path>
    </symbol>

    <symbol id="trashIcon" viewBox="0 0 28 28">
        <path fill="inherit" d="M16.06 2.89V1.11H12v1.78H4.11v4.19h20.07V2.89zM6.11 26.89h16.07l2-16.81H4.11z"></path>
    </symbol>

    <symbol id="github_icon" viewBox="0 0 30 30">
        <path fill="inherit" d="M15,3C8.373,3,3,8.373,3,15c0,5.623,3.872,10.328,9.092,11.63C12.036,26.468,12,26.28,12,26.047v-2.051 c-0.487,0-1.303,0-1.508,0c-0.821,0-1.551-0.353-1.905-1.009c-0.393-0.729-0.461-1.844-1.435-2.526 c-0.289-0.227-0.069-0.486,0.264-0.451c0.615,0.174,1.125,0.596,1.605,1.222c0.478,0.627,0.703,0.769,1.596,0.769 c0.433,0,1.081-0.025,1.691-0.121c0.328-0.833,0.895-1.6,1.588-1.962c-3.996-0.411-5.903-2.399-5.903-5.098 c0-1.162,0.495-2.286,1.336-3.233C9.053,10.647,8.706,8.73,9.435,8c1.798,0,2.885,1.166,3.146,1.481C13.477,9.174,14.461,9,15.495,9 c1.036,0,2.024,0.174,2.922,0.483C18.675,9.17,19.763,8,21.565,8c0.732,0.731,0.381,2.656,0.102,3.594 c0.836,0.945,1.328,2.066,1.328,3.226c0,2.697-1.904,4.684-5.894,5.097C18.199,20.49,19,22.1,19,23.313v2.734 c0,0.104-0.023,0.179-0.035,0.268C23.641,24.676,27,20.236,27,15C27,8.373,21.627,3,15,3z"/>
    </symbol>

    <symbol id="telegram_icon" viewBox="0 0 50 50">
        <path fill="inherit" d="M 44.376953 5.9863281 C 43.889905 6.0076957 43.415817 6.1432497 42.988281 6.3144531 C 42.565113 6.4845113 40.128883 7.5243408 36.53125 9.0625 C 32.933617 10.600659 28.256963 12.603668 23.621094 14.589844 C 14.349356 18.562196 5.2382813 22.470703 5.2382812 22.470703 L 5.3046875 22.445312 C 5.3046875 22.445312 4.7547875 22.629122 4.1972656 23.017578 C 3.9185047 23.211806 3.6186028 23.462555 3.3730469 23.828125 C 3.127491 24.193695 2.9479735 24.711788 3.015625 25.259766 C 3.2532479 27.184511 5.2480469 27.730469 5.2480469 27.730469 L 5.2558594 27.734375 L 14.158203 30.78125 C 14.385177 31.538434 16.858319 39.792923 17.402344 41.541016 C 17.702797 42.507484 17.984013 43.064995 18.277344 43.445312 C 18.424133 43.635633 18.577962 43.782915 18.748047 43.890625 C 18.815627 43.933415 18.8867 43.965525 18.957031 43.994141 C 18.958531 43.994806 18.959437 43.99348 18.960938 43.994141 C 18.969579 43.997952 18.977708 43.998295 18.986328 44.001953 L 18.962891 43.996094 C 18.979231 44.002694 18.995359 44.013801 19.011719 44.019531 C 19.043456 44.030655 19.062905 44.030268 19.103516 44.039062 C 20.123059 44.395042 20.966797 43.734375 20.966797 43.734375 L 21.001953 43.707031 L 26.470703 38.634766 L 35.345703 45.554688 L 35.457031 45.605469 C 37.010484 46.295216 38.415349 45.910403 39.193359 45.277344 C 39.97137 44.644284 40.277344 43.828125 40.277344 43.828125 L 40.310547 43.742188 L 46.832031 9.7519531 C 46.998903 8.9915162 47.022612 8.334202 46.865234 7.7402344 C 46.707857 7.1462668 46.325492 6.6299361 45.845703 6.34375 C 45.365914 6.0575639 44.864001 5.9649605 44.376953 5.9863281 z M 44.429688 8.0195312 C 44.627491 8.0103707 44.774102 8.032983 44.820312 8.0605469 C 44.866523 8.0881109 44.887272 8.0844829 44.931641 8.2519531 C 44.976011 8.419423 45.000036 8.7721605 44.878906 9.3242188 L 44.875 9.3359375 L 38.390625 43.128906 C 38.375275 43.162926 38.240151 43.475531 37.931641 43.726562 C 37.616914 43.982653 37.266874 44.182554 36.337891 43.792969 L 26.632812 36.224609 L 26.359375 36.009766 L 26.353516 36.015625 L 23.451172 33.837891 L 39.761719 14.648438 A 1.0001 1.0001 0 0 0 38.974609 13 A 1.0001 1.0001 0 0 0 38.445312 13.167969 L 14.84375 28.902344 L 5.9277344 25.849609 C 5.9277344 25.849609 5.0423771 25.356927 5 25.013672 C 4.99765 24.994652 4.9871961 25.011869 5.0332031 24.943359 C 5.0792101 24.874869 5.1948546 24.759225 5.3398438 24.658203 C 5.6298218 24.456159 5.9609375 24.333984 5.9609375 24.333984 L 5.9941406 24.322266 L 6.0273438 24.308594 C 6.0273438 24.308594 15.138894 20.399882 24.410156 16.427734 C 29.045787 14.44166 33.721617 12.440122 37.318359 10.902344 C 40.914175 9.3649615 43.512419 8.2583658 43.732422 8.1699219 C 43.982886 8.0696253 44.231884 8.0286918 44.429688 8.0195312 z M 33.613281 18.792969 L 21.244141 33.345703 L 21.238281 33.351562 A 1.0001 1.0001 0 0 0 21.183594 33.423828 A 1.0001 1.0001 0 0 0 21.128906 33.507812 A 1.0001 1.0001 0 0 0 20.998047 33.892578 A 1.0001 1.0001 0 0 0 20.998047 33.900391 L 19.386719 41.146484 C 19.35993 41.068197 19.341173 41.039555 19.3125 40.947266 L 19.3125 40.945312 C 18.800713 39.30085 16.467362 31.5161 16.144531 30.439453 L 33.613281 18.792969 z M 22.640625 35.730469 L 24.863281 37.398438 L 21.597656 40.425781 L 22.640625 35.730469 z"/>
    </symbol>

    <symbol id="vk_icon" viewBox="0 0 48 48">
        <path fill="inherit" d="M45.763,35.202c-1.797-3.234-6.426-7.12-8.337-8.811c-0.523-0.463-0.579-1.264-0.103-1.776 c3.647-3.919,6.564-8.422,7.568-11.143C45.334,12.27,44.417,11,43.125,11l-3.753,0c-1.237,0-1.961,0.444-2.306,1.151 c-3.031,6.211-5.631,8.899-7.451,10.47c-1.019,0.88-2.608,0.151-2.608-1.188c0-2.58,0-5.915,0-8.28 c0-1.147-0.938-2.075-2.095-2.075L18.056,11c-0.863,0-1.356,0.977-0.838,1.662l1.132,1.625c0.426,0.563,0.656,1.248,0.656,1.951 L19,23.556c0,1.273-1.543,1.895-2.459,1.003c-3.099-3.018-5.788-9.181-6.756-12.128C9.505,11.578,8.706,11.002,7.8,11l-3.697-0.009 c-1.387,0-2.401,1.315-2.024,2.639c3.378,11.857,10.309,23.137,22.661,24.36c1.217,0.12,2.267-0.86,2.267-2.073l0-3.846 c0-1.103,0.865-2.051,1.977-2.079c0.039-0.001,0.078-0.001,0.117-0.001c3.267,0,6.926,4.755,8.206,6.979 c0.368,0.64,1.056,1.03,1.8,1.03l4.973,0C45.531,38,46.462,36.461,45.763,35.202z"/>
    </symbol>

    <symbol id="dots_icon" viewBox="0 0 24 24">
        <circle fill="inherit" cx="12" cy="8" r="1"/>
        <circle fill="inherit" cx="12" cy="12" r="1"/>
        <circle fill="inherit" cx="12" cy="16" r="1"/>
    </symbol>
</svg>